<?xml version="1.0" encoding="utf-8" ?><svg xmlns="http://www.w3.org/2000/svg" xmlns:xlink="http://www.w3.org/1999/xlink" width="96" height="96" viewBox="0 0 96 96"><path fill="#1EA2FE" d="M36.8891 35.6463L37.4279 35.8484C37.8286 35.6378 41.074 29.8156 42.0159 28.8219C50.6836 19.677 57.1469 15.4528 63.8756 28.2952C62.0037 28.7382 61.3829 29.0423 59.6865 29.9238C56.8603 33.0499 60.5882 37.983 62.0345 41.2464C71.8838 38.4143 77.4799 35.5205 85.434 28.7854C86.7077 27.7069 88.2654 25.9895 89.833 26.7199C92.4192 30.8761 89.5681 33.9915 86.8388 37.0593C84.5657 39.6144 70.4239 51.0795 67.5306 49.6157L67.3286 49.1297C68.412 46.5209 85.3234 40.7277 89.1309 29.0265C86.9663 30.3811 85.0258 31.9284 82.9581 33.4063C77.1681 37.5451 70.243 41.4557 63.3284 43.2107C63.1565 44.2033 63.55 45.0357 63.6039 46.0454C62.7937 45.3735 63.5021 45.2731 62.2911 44.7018L62.2747 44.8444L62.0664 44.9033L61.1804 43.5939C51.6615 44.9958 46.8312 44.2184 38.608 39.3714L37.96 39.252C37.9373 39.4189 37.7884 39.7938 37.7228 39.9758L37.4904 39.8853C37.374 39.3394 37.2973 38.8957 37.221 38.3433L36.2537 37.2994C36.3019 37.0322 36.761 35.9602 36.8891 35.6463ZM56.387 33.0433C56.764 31.3651 56.9395 30.7389 57.8962 29.3508C59.1323 28.1503 59.7518 27.528 61.1836 26.593C56.7252 20.8082 53.4544 21.4736 47.9685 25.5476C45.2799 27.5442 39.9878 33.9811 39.5898 37.243C40.032 37.9969 43.1562 39.5909 44.0626 40.0923C45.3447 40.3361 47.2393 41.2997 48.6009 41.5302C52.3125 42.1585 56.191 42.0292 59.931 41.9758C58.3628 38.7766 57.3744 36.4596 56.387 33.0433Z"/><path fill="#22B3FE" d="M36.8891 35.6463L37.4279 35.8484C37.8286 35.6378 41.074 29.8156 42.0159 28.8219C50.6836 19.677 57.1469 15.4528 63.8756 28.2952C62.0037 28.7382 61.3829 29.0423 59.6865 29.9238C58.9509 29.406 58.7956 29.3547 57.8962 29.3508C59.1323 28.1503 59.7518 27.528 61.1836 26.593C56.7252 20.8082 53.4544 21.4736 47.9685 25.5476C45.2799 27.5442 39.9878 33.9811 39.5898 37.243C40.032 37.9969 43.1562 39.5909 44.0626 40.0923C42.0624 40.265 41.5228 39.2384 39.6697 38.5596C38.5983 38.702 38.5387 38.5424 37.96 39.252C37.9373 39.4189 37.7884 39.7938 37.7228 39.9758L37.4904 39.8853C37.374 39.3394 37.2973 38.8957 37.221 38.3433L36.2537 37.2994C36.3019 37.0322 36.761 35.9602 36.8891 35.6463Z"/><defs><linearGradient id="gradient_0" gradientUnits="userSpaceOnUse" x1="55.059788" y1="81.488472" x2="46.517929" y2="29.215595"><stop offset="0" stop-color="#0B7DFF"/><stop offset="1" stop-color="#1BB0FF"/></linearGradient></defs><path fill="url(#gradient_0)" d="M5.5131 35.3759C8.74957 47.3116 16.655 57.4418 27.4466 63.4816C38.5044 69.7441 45.0606 70.0104 56.9475 71.0306C60.1723 65.3743 62.9621 56.4001 62.2554 49.9784C62.0941 48.5126 61.113 44.4711 61.1804 43.5939L62.0664 44.9033L62.2747 44.8444L62.2911 44.7018C63.5021 45.2731 62.7937 45.3735 63.6039 46.0454C63.649 46.1338 63.6933 46.2311 63.7148 46.3282C65.5973 54.8497 63.7916 63.5941 59.1669 70.8837C69.0286 68.7597 75.9607 66.7671 83.941 59.7666C86.4246 57.2352 90.236 54.4389 91.4299 51.063C91.8066 49.9978 90.5004 46.9769 91.609 46.0126L92.1891 46.1213C100.29 53.3223 74.5217 70.4034 67.8835 71.0538C67.0463 71.1359 58.6836 73.2059 58.4643 73.3634C54.5958 76.1419 51.5605 81.2223 46.6092 82.9653C45.4726 83.3747 41.4652 85.1189 40.9257 83.6085C41.082 83.2291 41.6217 82.7157 41.9854 82.5904C48.0657 80.4956 51.1276 77.4895 55.646 73.1159C47.3842 73.743 35.518 70.1483 28.2825 66.3852C15.391 59.6806 8.2289 50.2208 3.79393 36.71C4.59078 36.3927 4.91246 35.9909 5.5131 35.3759Z"/><defs><linearGradient id="gradient_1" gradientUnits="userSpaceOnUse" x1="54.095055" y1="65.537102" x2="43.794151" y2="37.903725"><stop offset="0" stop-color="#108CFF"/><stop offset="1" stop-color="#24A7FF"/></linearGradient></defs><path fill="url(#gradient_1)" d="M37.221 38.3433C37.2973 38.8957 37.374 39.3394 37.4904 39.8853L37.7228 39.9758C37.7884 39.7938 37.9373 39.4189 37.96 39.252L38.608 39.3714C38.0577 50.6369 38.9459 59.0736 49.313 65.8161C52.6756 63.9191 56.0337 61.0812 57.8745 57.7079C59.5972 54.5509 60.5701 48.7645 55.584 48.2237C53.6378 48.0126 52.6641 48.4677 50.8514 49.0224C51.7285 50.7679 52.7652 54.2857 50.442 55.3778C49.9572 55.6078 49.4002 55.6326 48.8969 55.4466C46.2969 54.4693 47.4597 51.0014 48.1447 49.1856C42.6533 46.7777 41.1978 49.9098 39.2403 49.0796L39.1377 48.568C41.4074 44.428 46.0648 46.1181 49.4913 47.3276C58.5284 44.0452 63.5141 47.7214 60.5344 57.6876C59.2256 62.0653 53.3251 66.3583 49.1043 68.1154C48.9713 68.0561 48.8395 67.994 48.7092 67.929C41.2316 64.2185 36.8608 55.3752 36.2992 47.3077C36.1324 44.9119 36.1504 40.4887 37.221 38.3433Z"/><path fill="#22B3FE" d="M20.6975 2.13625C23.2385 11.2961 24.9448 19.927 30.6497 27.8292C31.4812 28.981 36.7953 35.2254 36.8891 35.6463C36.761 35.9602 36.3019 37.0322 36.2537 37.2994C30.087 34.1795 22.62 18.1456 21.1138 11.6306C20.8679 10.567 19.5368 6.01057 18.8894 5.63914L18.1724 6.02984C16.2677 13.0501 20.8951 24.1934 23.5095 30.7619C24.1291 32.3186 27.4245 37.6118 26.7424 38.7938C22.0551 38.418 13.0802 10.9327 16.8857 4.97887C17.6122 3.8504 19.5278 2.80865 20.6975 2.13625Z"/><path fill="#1EA2FE" d="M90.2098 35.6401C90.3704 35.6833 90.5293 35.733 90.6859 35.7891C93.0506 36.6412 93.227 40.353 92.3203 42.1867C88.6256 49.6591 77.6234 55.7658 70.3818 58.9808C69.4988 59.0585 69.6417 59.1813 68.9899 58.7747L69.068 58.2241C70.6328 56.3671 76.9704 53.7965 79.3146 51.8738C82.7754 48.9622 89.4349 45.6931 90.5774 41.0822C90.9283 39.6661 89.7468 37.2106 90.2098 35.6401Z"/><path fill="#22B3FE" d="M8.53141 13.416C9.36536 14.2876 9.56105 14.7877 9.79038 15.9988C10.8646 24.9239 13.7892 33.5467 18.4042 41.1767C18.7157 41.6917 18.6651 42.1397 18.458 42.6525C14.7467 43.5964 9.7444 26.508 9.09619 23.6683C8.38994 20.5744 7.35488 16.438 8.53141 13.416Z"/><path fill="#22B3FE" d="M2.82859 32.8049C1.85293 30.3765 1.46997 23.1861 2.08197 20.5381C2.53591 18.5739 4.78248 16.2284 6.96075 16.8186L7.05108 17.3049C6.7259 18.4967 5.63147 18.9056 4.82892 19.9296C3.17265 22.043 3.86896 25.8384 4.12194 28.3704C4.54028 30.6936 4.9332 33.0922 5.5131 35.3759C4.91246 35.9909 4.59078 36.3927 3.79393 36.71C3.34792 35.2871 3.1225 34.2703 2.82859 32.8049Z"/><path fill="#22B3FE" d="M8.53141 13.416C9.173 12.0628 11.3642 9.16612 13.0373 9.79377C13.262 10.6517 10.1613 14.2943 9.79038 15.9988C9.56105 14.7877 9.36536 14.2876 8.53141 13.416Z"/></svg>