<?xml version="1.0" encoding="UTF-8"?>
<svg xmlns="http://www.w3.org/2000/svg" width="24" height="24" viewBox="0 0 24 24" fill="none">
  <rect width="24" height="24" fill="#5B7742"></rect>
  <g clip-path="url(#clip0_29737_8207)">
    <path d="M19.1646 12.0557C19.1646 12.7682 19.7234 13.2128 20.3151 13.2128C20.9286 13.2128 21.4655 12.7682 21.4489 12.1127C21.4655 11.4345 20.9121 10.9899 20.2767 10.9899C19.6851 10.9956 19.1866 11.4003 19.1646 12.0557ZM13.0952 14.3756H11.6819V9.10322H13.1116L14.3934 11.1495L15.6588 9.10322H17.0885V14.3813H15.6752V11.5427L14.3934 13.4921L13.0952 11.5427V14.3756ZM8.26367 13.7201L6.05609 9.10322H7.61728L8.97579 11.9075L9.03058 11.7707L9.83035 9.10322H11.408L9.80842 13.6631C9.30447 15.1906 8.47182 15.9829 6.98733 16V14.4724C7.73232 14.4724 8.13768 14.2616 8.26916 13.7372V13.7201H8.26367ZM2.46807 14.3756H1V9.10322H5.77124V14.3813H4.28672V10.5168H2.46807V14.3756ZM20.3918 14.6491C18.8853 14.6491 17.6254 13.4123 17.6254 11.7138C17.6254 10.0152 18.332 8.81254 19.9864 8.04306C20.2438 7.90627 20.6547 7.75237 20.9888 7.44458C21.1202 7.33059 21.2682 7.1368 21.3393 7L22.5664 7.79227C22.287 8.56745 21.5803 8.85244 20.8957 9.14313C20.2438 9.39392 19.6303 9.6675 19.3893 10.2831L19.4276 10.3002C19.7782 9.96961 20.2658 9.81571 20.7477 9.81571C21.8981 9.81571 22.9772 10.7619 22.9389 12.1355C22.9005 13.8569 21.5969 14.6491 20.3918 14.6491Z" fill="white"></path>
  </g>
  <defs>
    <clipPath id="clip0_29737_8207">
      <rect width="22" height="9" fill="white" transform="translate(1 7)"></rect>
    </clipPath>
  </defs>
</svg>
