<?xml version="1.0" encoding="UTF-8"?>
<svg xmlns="http://www.w3.org/2000/svg" width="24" height="24" viewBox="0 0 24 24" fill="none">
  <rect width="24" height="24" fill="#5B7742"></rect>
  <path d="M12.1243 6.29195C14.0702 6.29195 15.7459 6.80005 17.6703 8.30271L17.7568 8.01091L19.3676 3.61086L16.8811 2.80005L16.427 4.59465C15.2054 3.95681 13.7459 3.43789 12.1567 3.43789C8.09187 3.43789 5.84322 5.31897 5.84322 8.14061C5.84322 10.9298 8.29728 12.3027 12.0919 13.5136C15.1838 14.4541 16.0595 15.3622 16.0595 16.2379C16.0595 17.6433 14.6865 18.4541 12.7297 18.4541C10.2108 18.4541 8.05944 17.1784 6.9243 15.2325L4.59998 17.146C6.00539 19.4271 8.82701 21.2433 12.5892 21.2433C17.0216 21.2433 19.173 18.8973 19.173 15.9352C19.173 13.9892 17.8649 12.3784 12.8594 10.7244C10.6108 9.95681 8.96755 9.51361 8.96755 8.07571C8.96755 7.03789 9.67025 6.29195 12.1243 6.29195Z" fill="white"></path>
</svg>
