<?xml version="1.0" encoding="UTF-8"?>
<svg xmlns="http://www.w3.org/2000/svg" width="24" height="24" viewBox="0 0 24 24" fill="none">
  <rect width="24" height="24" fill="#5B7742"></rect>
  <g clip-path="url(#clip0_29737_8256)">
    <mask id="mask0_29737_8256" style="mask-type:luminance" maskUnits="userSpaceOnUse" x="1" y="10" width="22" height="8">
      <path d="M23 10.0192H1V17.756H23V10.0192Z" fill="white"></path>
    </mask>
    <g mask="url(#mask0_29737_8256)">
      <path d="M20.9101 13.1529C20.8989 13.1512 20.8875 13.1518 20.8766 13.1545C20.8656 13.1573 20.8554 13.1621 20.8466 13.1688C20.8378 13.1754 20.8306 13.1838 20.8254 13.1932C20.8202 13.2026 20.8172 13.2129 20.8165 13.2235C20.8165 13.2235 20.6977 13.4844 20.4876 13.585C20.3919 13.6309 20.3515 13.6551 20.1337 13.6493H19.0378C18.4453 13.6098 18.384 13.0297 18.384 13.0297C18.384 12.9591 18.376 12.8651 18.376 12.8248V12.1663C18.3921 11.5731 18.8839 11.4368 18.8839 11.4368C18.9601 11.4206 19.0383 11.4135 19.1165 11.4157H20.2127C20.7099 11.431 20.8409 11.9385 20.8409 11.9385C20.8481 11.9563 20.8607 11.9719 20.877 11.9832C20.8934 11.9946 20.913 12.0012 20.9333 12.0025H22.9242C22.9446 12.0023 22.9641 11.9946 22.9784 11.9811C22.9927 11.9675 23.0007 11.9492 23.0006 11.9302V11.7308C22.9709 10.352 21.6322 10.0181 21.3544 10.0244C21.2795 10.0244 21.1761 10.0192 21.133 10.0192H18.0373C17.0947 10.0231 16.5601 10.6735 16.3702 11.1195C16.3097 11.2584 16.2723 11.405 16.2591 11.5545C16.2552 11.6351 16.2481 11.7644 16.2481 11.8047V13.3342C16.3337 14.7933 17.6863 15.038 17.8896 15.0444C17.9579 15.0466 18.0723 15.0505 18.1148 15.0505H21.21C22.6238 14.9799 22.9887 13.8203 22.9947 13.4493C22.9947 13.3417 22.9985 13.3 22.9985 13.2602V13.2274C22.9987 13.2179 22.9968 13.2084 22.9931 13.1996C22.9893 13.1907 22.9837 13.1826 22.9767 13.1758C22.9696 13.1689 22.9611 13.1635 22.9517 13.1597C22.9424 13.1559 22.9323 13.1539 22.9222 13.1537L20.9101 13.1529Z" fill="white"></path>
    </g>
    <path d="M8.82819 10.1496C8.84988 10.1145 8.83265 10.0873 8.79045 10.0873H1.08587C1.06559 10.0872 1.04611 10.0947 1.03168 10.108C1.01726 10.1213 1.00907 10.1395 1.00891 10.1585V11.5456C1.00887 11.555 1.01083 11.5644 1.01468 11.5732C1.01853 11.582 1.0242 11.5899 1.03135 11.5967C1.0385 11.6034 1.047 11.6087 1.05635 11.6123C1.06571 11.616 1.07574 11.6179 1.08587 11.6179H2.97517C2.98528 11.6179 2.99528 11.6198 3.0046 11.6234C3.01392 11.6271 3.02239 11.6324 3.02951 11.6391C3.03662 11.6459 3.04226 11.6538 3.04609 11.6626C3.04992 11.6713 3.05188 11.6807 3.05184 11.6902V14.9034C3.05192 14.9226 3.06008 14.9409 3.07455 14.9545C3.08902 14.968 3.10863 14.9756 3.1291 14.9757H6.103C6.12347 14.9756 6.14307 14.968 6.15755 14.9545C6.17202 14.9409 6.18018 14.9226 6.18026 14.9034V11.6913C6.18018 11.6818 6.1821 11.6725 6.1859 11.6637C6.1897 11.655 6.1953 11.647 6.2024 11.6403C6.20949 11.6336 6.21794 11.6282 6.22724 11.6246C6.23655 11.6209 6.24654 11.619 6.25663 11.619H7.81638C7.83954 11.6176 7.86206 11.6112 7.88219 11.6004C7.90233 11.5896 7.91956 11.5747 7.93257 11.5567L8.82819 10.1496Z" fill="white"></path>
    <path d="M10.0715 10.0884C10.023 10.0905 9.97711 10.1096 9.94284 10.1418C9.94284 10.1418 8.57594 11.4129 8.58039 13.1798C8.58188 14.2713 9.05881 14.9187 9.05881 14.9187C9.09059 14.9524 9.13536 14.973 9.18332 14.976H11.1317C11.1739 14.976 11.1864 14.951 11.1597 14.9204C11.1597 14.9204 10.5312 14.1709 10.5425 13.152C10.5517 12.2382 11.1282 11.6643 11.1282 11.6643C11.1434 11.6474 11.1621 11.6335 11.1832 11.6236C11.2043 11.6137 11.2273 11.608 11.2509 11.6067H12.4755C12.4856 11.6067 12.4956 11.6086 12.5049 11.6122C12.5142 11.6158 12.5227 11.6211 12.5298 11.6278C12.5369 11.6345 12.5426 11.6425 12.5464 11.6512C12.5502 11.6599 12.5522 11.6693 12.5521 11.6787V14.9045C12.5521 14.914 12.5541 14.9234 12.558 14.9322C12.5619 14.941 12.5676 14.9489 12.5748 14.9556C12.5819 14.9624 12.5905 14.9677 12.5998 14.9713C12.6092 14.975 12.6193 14.9768 12.6294 14.9768H15.3998C15.4099 14.9769 15.42 14.975 15.4295 14.9714C15.4389 14.9678 15.4475 14.9625 15.4547 14.9558C15.4619 14.949 15.4677 14.9411 15.4716 14.9323C15.4755 14.9235 15.4776 14.9141 15.4776 14.9045V10.1596C15.4773 10.1405 15.4689 10.1223 15.4544 10.109C15.4398 10.0956 15.4201 10.0882 15.3998 10.0884H10.0715Z" fill="white"></path>
    <path d="M10.5425 13.1528C10.5423 13.3448 10.5627 13.5364 10.6034 13.7246H14.5814L15.1041 12.9548H10.5517C10.546 13.0188 10.5425 13.085 10.5425 13.1526" fill="white"></path>
    <path d="M10.6824 12.3871C10.6251 12.5398 10.5847 12.6977 10.5618 12.8582H15.17L15.49 12.3871H10.6824Z" fill="white"></path>
  </g>
  <defs>
    <clipPath id="clip0_29737_8256">
      <rect width="22" height="5" fill="white" transform="translate(1 10)"></rect>
    </clipPath>
  </defs>
</svg>
