<?xml version="1.0" encoding="UTF-8"?>
<svg xmlns="http://www.w3.org/2000/svg" width="24" height="24" viewBox="0 0 24 24" fill="none">
  <rect width="24" height="24" fill="#5B7742"></rect>
  <path fill-rule="evenodd" clip-rule="evenodd" d="M11.2757 6.11906C11.1637 6.18428 10.9396 6.31224 10.7778 6.40343C10.4581 6.58367 8.53898 7.68399 6.7037 8.7394C6.06883 9.1045 5.21327 9.59553 4.80247 9.8306C4.39167 10.0656 3.66852 10.4797 3.19547 10.7506C1.53049 11.7044 1.2473 11.8655 1.12421 11.9287C1.05591 11.9637 1 12.0044 1 12.019C1 12.0561 1.03006 12.0739 2.6749 13.0133C3.48405 13.4754 4.59424 14.1119 5.14198 14.4277C5.68971 14.7434 6.22953 15.053 6.34156 15.1155C6.4536 15.1781 6.85082 15.4049 7.22428 15.6197C7.59774 15.8344 8.32088 16.2479 8.83128 16.5385C9.34167 16.8292 9.79946 17.0948 9.84857 17.1289C10.106 17.3078 10.026 17.1337 9.48471 16.337C8.66347 15.1283 8.40241 14.3737 8.40418 13.2133C8.40517 12.571 8.47941 12.1556 8.69923 11.563C8.97409 10.8219 9.29051 10.3565 10.0645 9.55445C10.8816 8.70776 11.2509 8.0747 11.437 7.20145C11.5214 6.80565 11.5772 5.99924 11.5202 6C11.4978 6.00032 11.3878 6.05389 11.2757 6.11906ZM12.4527 6.33215C12.4527 7.50056 11.9761 8.775 11.2074 9.66255C11.1004 9.78615 10.8269 10.0746 10.5997 10.3035C9.69729 11.213 9.30853 12.1147 9.31614 13.2807C9.32071 13.9745 9.41523 14.3609 9.74228 15.0226C9.98981 15.5233 10.0515 15.5514 10.0528 15.1644C10.0538 14.8705 10.2092 14.3032 10.3965 13.9099C10.6752 13.3247 11.0714 12.8665 11.8144 12.2699C12.4602 11.7514 12.9592 11.0103 13.1615 10.2693C13.2458 9.96076 13.2791 8.78129 13.212 8.48272C13.1671 8.28284 13.2297 8.29938 13.3549 8.52043C13.7934 9.2952 13.5938 10.75 12.9072 11.783C12.665 12.1474 12.4062 12.4236 11.8619 12.8986C11.5285 13.1895 11.2449 13.5695 11.0306 14.0124C10.7518 14.5884 10.6636 15.0072 10.6688 15.7302C10.6724 16.2348 10.6893 16.3636 10.7929 16.6741C10.9312 17.0891 11.0991 17.39 11.3696 17.7079C11.5455 17.9145 11.5581 17.9217 11.5255 17.7977C11.3326 17.0624 11.3848 16.4325 11.6892 15.8233C11.847 15.5075 12.1641 15.1259 12.4251 14.9377C12.5274 14.8639 12.7231 14.7232 12.8601 14.625C12.997 14.5269 13.25 14.3106 13.4222 14.1445C15.456 12.1829 15.5105 8.96391 13.5451 6.88152C13.343 6.66745 12.7627 6.20131 12.5842 6.10962L12.4527 6.04211V6.33215ZM15.1687 7.54402C15.1687 7.55481 15.2484 7.73563 15.3457 7.94584C15.7555 8.83069 15.9144 9.65225 15.8777 10.6963C15.8532 11.3958 15.7944 11.7424 15.5962 12.357C15.2088 13.5582 14.3408 14.7063 13.2393 15.4741C12.5485 15.9557 12.2781 16.4376 12.3283 17.0977C12.347 17.3439 12.5549 18 12.6143 18C12.6232 18 12.8807 17.856 13.1866 17.68C13.4925 17.504 13.8039 17.325 13.8786 17.2823C13.9533 17.2396 14.4116 16.9767 14.8971 16.6981C15.3826 16.4195 16.3298 15.8779 17.0021 15.4946C17.6743 15.1113 18.5196 14.6274 18.8807 14.4191C19.2417 14.2108 19.5778 14.0175 19.6276 13.9894C19.6774 13.9614 20.0237 13.763 20.3971 13.5485C20.7706 13.334 21.4632 12.9368 21.9362 12.6658C22.9259 12.0989 23 12.054 23 12.0218C23 12.0087 22.7709 11.8688 22.4907 11.7109C22.2107 11.553 21.7269 11.2773 21.4156 11.0982C20.5838 10.6195 17.9783 9.12553 17.7942 9.0218C17.7071 8.97267 17.1164 8.63459 16.4815 8.27057C15.1646 7.51539 15.1687 7.51773 15.1687 7.54402Z" fill="white"></path>
</svg>
